<svg width="18" height="14" viewBox="0 0 18 14" fill="none" xmlns="http://www.w3.org/2000/svg">
<path fill-rule="evenodd" clip-rule="evenodd" d="M11.3162 0.0513133C11.8402 0.225961 12.1233 0.792281 11.9487 1.31622L7.94868 13.3162C7.77404 13.8402 7.20772 14.1233 6.68377 13.9487C6.15983 13.774 5.87667 13.2077 6.05132 12.6838L10.0513 0.683769C10.226 0.159826 10.7923 -0.123334 11.3162 0.0513133ZM4.70711 3.29289C5.09763 3.68341 5.09763 4.31658 4.70711 4.7071L2.41421 7L4.70711 9.29289C5.09763 9.68341 5.09763 10.3166 4.70711 10.7071C4.31658 11.0976 3.68342 11.0976 3.29289 10.7071L0.292893 7.7071C-0.0976311 7.31658 -0.0976311 6.68341 0.292893 6.29289L3.29289 3.29289C3.68342 2.90237 4.31658 2.90237 4.70711 3.29289ZM13.2929 3.29289C13.6834 2.90237 14.3166 2.90237 14.7071 3.29289L17.7071 6.29289C18.0976 6.68341 18.0976 7.31658 17.7071 7.7071L14.7071 10.7071C14.3166 11.0976 13.6834 11.0976 13.2929 10.7071C12.9024 10.3166 12.9024 9.68341 13.2929 9.29289L15.5858 7L13.2929 4.7071C12.9024 4.31658 12.9024 3.68341 13.2929 3.29289Z" fill="#111827"/>
</svg>
